<svg xmlns="http://www.w3.org/2000/svg" xmlns:xlink="http://www.w3.org/1999/xlink" width="1920" zoomAndPan="magnify" viewBox="0 0 1440 809.999993" height="1080" preserveAspectRatio="xMidYMid meet" version="1.0"><defs><g/></defs><path fill="#39b54a" d="M 666.425781 306.808594 C 662.875 298.609375 657.601562 282.648438 662.78125 265.605469 C 671.28125 237.644531 704.628906 217.597656 744.761719 220.195312 C 750.089844 254.304688 736.957031 286.261719 712.210938 300.519531 C 695.542969 310.125 678.277344 309.003906 670.097656 307.859375 C 678.472656 301.492188 687.871094 293.3125 697.265625 282.953125 C 711.765625 266.96875 721.449219 251.105469 727.855469 238.449219 C 718.648438 251.328125 707.589844 265.246094 694.375 279.460938 C 684.839844 289.722656 675.421875 298.804688 666.425781 306.808594 Z M 666.425781 306.808594 " fill-opacity="1" fill-rule="nonzero"/><path fill="#39b54a" d="M 655.726562 307.699219 C 649.464844 309.597656 637.410156 312.097656 625.460938 306.855469 C 605.859375 298.25 594.125 272.136719 599.433594 242.984375 C 624.6875 241.992188 646.800781 254.328125 655.058594 273.652344 C 660.617188 286.667969 658.335938 299.210938 656.804688 305.097656 C 652.890625 298.429688 647.742188 290.851562 641.011719 283.09375 C 630.625 271.117188 619.917969 262.679688 611.261719 256.914062 C 619.84375 264.746094 629.015625 274.027344 638.226562 284.910156 C 644.875 292.765625 650.675781 300.429688 655.726562 307.699219 Z M 655.726562 307.699219 " fill-opacity="1" fill-rule="nonzero"/><g fill="#a3a19e" fill-opacity="1"><g transform="translate(1177.718419, 505.603736)"><g><path d="M 59.671875 -49.71875 L 42.46875 -50 C 39.601562 -50 37.179688 -51.023438 35.203125 -53.078125 C 33.234375 -55.140625 32.25 -57.601562 32.25 -60.46875 L 32.25 -71.234375 C 32.25 -72.484375 31.625 -73.109375 30.375 -73.109375 L 15.859375 -73.109375 C 12.804688 -73.109375 10.296875 -74.140625 8.328125 -76.203125 C 6.359375 -78.265625 5.375 -80.816406 5.375 -83.859375 L 5.640625 -101.0625 C 5.816406 -103.925781 6.890625 -106.34375 8.859375 -108.3125 C 10.835938 -110.289062 13.257812 -111.28125 16.125 -111.28125 L 29.828125 -111.28125 C 31.085938 -111.28125 31.71875 -111.90625 31.71875 -113.15625 L 31.71875 -126.59375 C 31.71875 -129.457031 32.703125 -131.921875 34.671875 -133.984375 C 36.640625 -136.046875 39.0625 -137.078125 41.9375 -137.078125 L 59.671875 -137.34375 C 62.710938 -137.34375 65.265625 -136.359375 67.328125 -134.390625 C 69.390625 -132.421875 70.421875 -129.910156 70.421875 -126.859375 L 70.421875 -113.6875 C 70.421875 -113.15625 70.597656 -112.707031 70.953125 -112.34375 C 71.316406 -111.988281 71.765625 -111.8125 72.296875 -111.8125 L 86.015625 -111.8125 C 89.054688 -111.8125 91.609375 -110.78125 93.671875 -108.71875 C 95.734375 -106.65625 96.675781 -104.101562 96.5 -101.0625 L 96.21875 -83.328125 C 96.21875 -80.453125 95.1875 -78.03125 93.125 -76.0625 C 91.070312 -74.09375 88.609375 -73.109375 85.734375 -73.109375 L 72.296875 -73.109375 C 71.046875 -73.109375 70.421875 -72.484375 70.421875 -71.234375 L 70.421875 -60.203125 C 70.421875 -57.160156 69.390625 -54.5625 67.328125 -52.40625 C 65.265625 -50.257812 62.710938 -49.363281 59.671875 -49.71875 Z M 59.671875 -49.71875 "/></g></g></g><g fill="#39b54a" fill-opacity="1"><g transform="translate(160.407128, 505.603736)"><g><path d="M 142.984375 1.34375 C 137.796875 1.164062 131.570312 1.078125 124.3125 1.078125 C 117.050781 1.078125 108.40625 1.078125 98.375 1.078125 C 95.507812 1.078125 93.179688 0.179688 91.390625 -1.609375 C 89.597656 -3.398438 87.894531 -5.726562 86.28125 -8.59375 L 69.890625 -45.15625 L 64.78125 -45.15625 L 65.84375 -11.015625 C 66.207031 -7.972656 65.3125 -5.421875 63.15625 -3.359375 C 61.007812 -1.296875 58.769531 -0.265625 56.4375 -0.265625 L 9.671875 0 C 7.160156 0 5.007812 -1.03125 3.21875 -3.09375 C 1.425781 -5.15625 0.53125 -7.617188 0.53125 -10.484375 L 0 -178.46875 C 0 -180.976562 0.9375 -183.351562 2.8125 -185.59375 C 4.695312 -187.832031 6.804688 -188.953125 9.140625 -188.953125 L 47.3125 -188.953125 C 61.46875 -189.128906 74.457031 -188.992188 86.28125 -188.546875 C 98.101562 -188.097656 108.539062 -186.570312 117.59375 -183.96875 C 126.644531 -181.375 134.171875 -176.941406 140.171875 -170.671875 C 146.171875 -164.398438 150.425781 -155.441406 152.9375 -143.796875 C 153.832031 -139.316406 154.59375 -133.894531 155.21875 -127.53125 C 155.84375 -121.175781 155.976562 -114.546875 155.625 -107.640625 C 155.269531 -100.742188 154.285156 -94.160156 152.671875 -87.890625 C 151.054688 -81.617188 148.546875 -76.421875 145.140625 -72.296875 C 140.660156 -66.742188 135.285156 -62.175781 129.015625 -58.59375 C 131.878906 -52.863281 135.101562 -46.234375 138.6875 -38.703125 C 142.269531 -31.179688 146.570312 -22.398438 151.59375 -12.359375 C 153.738281 -8.054688 154.140625 -4.648438 152.796875 -2.140625 C 151.453125 0.359375 148.179688 1.519531 142.984375 1.34375 Z M 62.359375 -127.40625 L 63.15625 -99.453125 L 76.609375 -99.453125 C 82.878906 -99.453125 87.710938 -100.972656 91.109375 -104.015625 C 94.515625 -107.066406 96.304688 -110.609375 96.484375 -114.640625 C 96.671875 -118.671875 94.878906 -122.207031 91.109375 -125.25 C 89.316406 -126.6875 85.78125 -127.359375 80.5 -127.265625 C 75.21875 -127.179688 69.171875 -127.226562 62.359375 -127.40625 Z M 62.359375 -127.40625 "/></g></g></g><g fill="#39b54a" fill-opacity="1"><g transform="translate(327.051342, 505.603736)"><g><path d="M 9.671875 0 C 7.347656 0 5.195312 -0.984375 3.21875 -2.953125 C 1.425781 -4.742188 0.53125 -7.253906 0.53125 -10.484375 L 0 -180.625 C 0 -183.132812 0.984375 -185.550781 2.953125 -187.875 C 4.921875 -190.03125 6.984375 -191.109375 9.140625 -191.109375 L 113.15625 -190.828125 C 116.195312 -190.828125 118.707031 -189.929688 120.6875 -188.140625 C 122.65625 -186.171875 123.640625 -183.929688 123.640625 -181.421875 L 123.640625 -141.375 C 123.640625 -139.226562 122.5625 -137.171875 120.40625 -135.203125 C 118.4375 -133.585938 116.019531 -132.597656 113.15625 -132.234375 L 62.359375 -129.828125 L 62.890625 -116.375 L 91.921875 -116.109375 C 94.253906 -116.109375 96.316406 -115.484375 98.109375 -114.234375 C 99.898438 -112.972656 100.707031 -111.269531 100.53125 -109.125 L 99.1875 -80.359375 C 99.1875 -78.566406 98.289062 -77.046875 96.5 -75.796875 C 94.882812 -74.722656 92.910156 -74.003906 90.578125 -73.640625 L 63.96875 -72.296875 L 64.5 -61.546875 L 113.15625 -59.40625 C 116.019531 -59.039062 118.4375 -58.050781 120.40625 -56.4375 C 122.5625 -54.644531 123.640625 -52.585938 123.640625 -50.265625 L 123.640625 -10.21875 C 123.640625 -7.707031 122.65625 -5.46875 120.6875 -3.5 C 118.707031 -1.707031 116.195312 -0.8125 113.15625 -0.8125 L 41.390625 0 C 41.035156 0 40.585938 0 40.046875 0 C 39.503906 0 39.054688 -0.0859375 38.703125 -0.265625 Z M 9.671875 0 "/></g></g></g><g fill="#39b54a" fill-opacity="1"><g transform="translate(461.441823, 505.603736)"><g><path d="M 109.9375 1.609375 C 99 4.472656 87.796875 5.367188 76.328125 4.296875 C 64.859375 3.222656 54.109375 0.132812 44.078125 -4.96875 C 34.046875 -10.070312 25.710938 -17.015625 19.078125 -25.796875 C 13.347656 -33.679688 8.914062 -42.773438 5.78125 -53.078125 C 2.644531 -63.390625 0.804688 -74.273438 0.265625 -85.734375 C -0.265625 -97.203125 0.269531 -108.492188 1.875 -119.609375 C 4.925781 -138.242188 11.289062 -154.007812 20.96875 -166.90625 C 30.644531 -179.8125 42.738281 -188.769531 57.25 -193.78125 C 71.757812 -198.800781 87.796875 -198.804688 105.359375 -193.796875 C 117.003906 -190.742188 126.097656 -186.257812 132.640625 -180.34375 C 139.179688 -174.4375 143.882812 -167.804688 146.75 -160.453125 C 149.625 -153.109375 151.328125 -145.671875 151.859375 -138.140625 C 152.398438 -130.617188 152.488281 -123.722656 152.125 -117.453125 C 151.945312 -112.078125 148.722656 -108.941406 142.453125 -108.046875 L 104.28125 -106.96875 C 101.414062 -106.613281 98.90625 -107.375 96.75 -109.25 C 94.601562 -111.132812 93.441406 -113.507812 93.265625 -116.375 C 93.265625 -117.457031 93.128906 -119.382812 92.859375 -122.15625 C 92.585938 -124.9375 92.003906 -127.757812 91.109375 -130.625 C 90.210938 -133.488281 88.78125 -135.460938 86.8125 -136.546875 C 81.082031 -139.046875 76.738281 -138.550781 73.78125 -135.0625 C 70.820312 -131.570312 68.804688 -126.0625 67.734375 -118.53125 C 66.660156 -111.007812 66.125 -102.410156 66.125 -92.734375 L 66.125 -91.390625 C 66.300781 -77.234375 68.445312 -66.835938 72.5625 -60.203125 C 76.6875 -53.578125 82.960938 -52.054688 91.390625 -55.640625 C 93.359375 -56.710938 94.742188 -58.632812 95.546875 -61.40625 C 96.359375 -64.1875 96.894531 -67.007812 97.15625 -69.875 C 97.425781 -72.75 97.5625 -74.8125 97.5625 -76.0625 C 97.75 -78.75 98.914062 -81.03125 101.0625 -82.90625 C 103.207031 -84.789062 105.71875 -85.554688 108.59375 -85.203125 L 146.75 -84.125 C 153.207031 -83.226562 156.523438 -80.003906 156.703125 -74.453125 C 157.054688 -68.359375 156.921875 -61.59375 156.296875 -54.15625 C 155.671875 -46.71875 153.921875 -39.328125 151.046875 -31.984375 C 148.179688 -24.640625 143.523438 -18.007812 137.078125 -12.09375 C 130.628906 -6.175781 121.582031 -1.609375 109.9375 1.609375 Z M 109.9375 1.609375 "/></g></g></g><g fill="#39b54a" fill-opacity="1"><g transform="translate(629.161154, 505.603736)"><g><path d="M 59.125 0 L 10.21875 0 C 7.53125 0 5.15625 -1.070312 3.09375 -3.21875 C 1.03125 -5.375 0 -7.796875 0 -10.484375 L 0.53125 -177.9375 C 0.53125 -180.976562 1.515625 -183.484375 3.484375 -185.453125 C 5.460938 -187.429688 7.882812 -188.421875 10.75 -188.421875 L 62.359375 -188.140625 C 65.046875 -188.140625 67.507812 -187.109375 69.75 -185.046875 C 71.988281 -182.992188 73.019531 -180.441406 72.84375 -177.390625 L 69.609375 -10.484375 C 69.609375 -7.617188 68.578125 -5.15625 66.515625 -3.09375 C 64.460938 -1.03125 62 0 59.125 0 Z M 59.125 0 "/></g></g></g><g fill="#39b54a" fill-opacity="1"><g transform="translate(712.752049, 505.603736)"><g><path d="M 109.9375 1.609375 C 99 4.472656 87.796875 5.367188 76.328125 4.296875 C 64.859375 3.222656 54.109375 0.132812 44.078125 -4.96875 C 34.046875 -10.070312 25.710938 -17.015625 19.078125 -25.796875 C 13.347656 -33.679688 8.914062 -42.773438 5.78125 -53.078125 C 2.644531 -63.390625 0.804688 -74.273438 0.265625 -85.734375 C -0.265625 -97.203125 0.269531 -108.492188 1.875 -119.609375 C 4.925781 -138.242188 11.289062 -154.007812 20.96875 -166.90625 C 30.644531 -179.8125 42.738281 -188.769531 57.25 -193.78125 C 71.757812 -198.800781 87.796875 -198.804688 105.359375 -193.796875 C 117.003906 -190.742188 126.097656 -186.257812 132.640625 -180.34375 C 139.179688 -174.4375 143.882812 -167.804688 146.75 -160.453125 C 149.625 -153.109375 151.328125 -145.671875 151.859375 -138.140625 C 152.398438 -130.617188 152.488281 -123.722656 152.125 -117.453125 C 151.945312 -112.078125 148.722656 -108.941406 142.453125 -108.046875 L 104.28125 -106.96875 C 101.414062 -106.613281 98.90625 -107.375 96.75 -109.25 C 94.601562 -111.132812 93.441406 -113.507812 93.265625 -116.375 C 93.265625 -117.457031 93.128906 -119.382812 92.859375 -122.15625 C 92.585938 -124.9375 92.003906 -127.757812 91.109375 -130.625 C 90.210938 -133.488281 88.78125 -135.460938 86.8125 -136.546875 C 81.082031 -139.046875 76.738281 -138.550781 73.78125 -135.0625 C 70.820312 -131.570312 68.804688 -126.0625 67.734375 -118.53125 C 66.660156 -111.007812 66.125 -102.410156 66.125 -92.734375 L 66.125 -91.390625 C 66.300781 -77.234375 68.445312 -66.835938 72.5625 -60.203125 C 76.6875 -53.578125 82.960938 -52.054688 91.390625 -55.640625 C 93.359375 -56.710938 94.742188 -58.632812 95.546875 -61.40625 C 96.359375 -64.1875 96.894531 -67.007812 97.15625 -69.875 C 97.425781 -72.75 97.5625 -74.8125 97.5625 -76.0625 C 97.75 -78.75 98.914062 -81.03125 101.0625 -82.90625 C 103.207031 -84.789062 105.71875 -85.554688 108.59375 -85.203125 L 146.75 -84.125 C 153.207031 -83.226562 156.523438 -80.003906 156.703125 -74.453125 C 157.054688 -68.359375 156.921875 -61.59375 156.296875 -54.15625 C 155.671875 -46.71875 153.921875 -39.328125 151.046875 -31.984375 C 148.179688 -24.640625 143.523438 -18.007812 137.078125 -12.09375 C 130.628906 -6.175781 121.582031 -1.609375 109.9375 1.609375 Z M 109.9375 1.609375 "/></g></g></g><g fill="#39b54a" fill-opacity="1"><g transform="translate(880.471412, 505.603736)"><g><path d="M 9.140625 0 C 6.804688 0 4.65625 -0.984375 2.6875 -2.953125 C 0.894531 -4.742188 0 -7.253906 0 -10.484375 L 0.53125 -179.8125 C 0.53125 -182.320312 1.519531 -184.742188 3.5 -187.078125 C 5.46875 -189.222656 7.523438 -190.296875 9.671875 -190.296875 L 54.828125 -190.03125 C 57.335938 -190.03125 59.578125 -189.046875 61.546875 -187.078125 C 63.335938 -185.097656 64.234375 -182.585938 64.234375 -179.546875 L 66.921875 -61.28125 L 96.765625 -59.671875 C 99.628906 -59.304688 102.046875 -58.320312 104.015625 -56.71875 C 106.171875 -54.925781 107.25 -52.863281 107.25 -50.53125 L 106.96875 -10.21875 C 106.96875 -7.707031 105.984375 -5.46875 104.015625 -3.5 C 102.046875 -1.707031 99.539062 -0.8125 96.5 -0.8125 L 40.859375 0 C 40.492188 0 40.039062 0 39.5 0 C 38.96875 0 38.523438 -0.0859375 38.171875 -0.265625 Z M 9.140625 0 "/></g></g></g><g fill="#39b54a" fill-opacity="1"><g transform="translate(998.466239, 505.603736)"><g><path d="M 9.40625 0.8125 C 6 0.8125 3.398438 -0.625 1.609375 -3.5 C 0.359375 -5.644531 -0.132812 -7.34375 0.125 -8.59375 C 0.394531 -9.851562 0.800781 -12.097656 1.34375 -15.328125 L 41.125 -180.890625 C 41.84375 -183.578125 42.960938 -185.992188 44.484375 -188.140625 C 46.003906 -190.296875 48.019531 -191.375 50.53125 -191.375 L 118 -191.375 C 120.507812 -191.375 122.523438 -190.296875 124.046875 -188.140625 C 125.566406 -185.992188 126.6875 -183.578125 127.40625 -180.890625 L 167.1875 -15.328125 C 167.71875 -12.097656 168.160156 -9.851562 168.515625 -8.59375 C 168.878906 -7.34375 168.34375 -5.644531 166.90625 -3.5 C 165.113281 -0.625 162.519531 0.8125 159.125 0.8125 C 145.863281 0.8125 135.554688 0.851562 128.203125 0.9375 C 120.859375 1.03125 115.570312 0.757812 112.34375 0.125 C 109.125 -0.5 106.972656 -1.929688 105.890625 -4.171875 C 104.816406 -6.410156 103.832031 -9.945312 102.9375 -14.78125 L 101.328125 -23.109375 L 67.1875 -23.109375 L 65.578125 -14.78125 C 64.679688 -9.945312 63.695312 -6.410156 62.625 -4.171875 C 61.550781 -1.929688 59.398438 -0.5 56.171875 0.125 C 52.953125 0.757812 47.664062 1.03125 40.3125 0.9375 C 32.96875 0.851562 22.664062 0.8125 9.40625 0.8125 Z M 76.328125 -74.984375 L 92.1875 -74.984375 L 84.390625 -119.609375 Z M 76.328125 -74.984375 "/></g></g></g><g fill="#000000" fill-opacity="1"><g transform="translate(452.113524, 569.142956)"><g><path d="M 12.46875 -32.046875 C 16.050781 -32.046875 18.738281 -31.578125 20.53125 -30.640625 C 22.332031 -29.710938 23.550781 -28.15625 24.1875 -25.96875 C 24.65625 -24.570312 24.765625 -23.40625 24.515625 -22.46875 C 24.296875 -21.539062 23.722656 -20.96875 22.796875 -20.75 C 21.867188 -20.539062 21.113281 -20.613281 20.53125 -20.96875 C 19.957031 -21.394531 19.421875 -22.128906 18.921875 -23.171875 C 18.453125 -24.210938 18.039062 -24.910156 17.6875 -25.265625 C 17.332031 -25.628906 16.847656 -25.863281 16.234375 -25.96875 C 13.148438 -26.613281 10.75 -26.4375 9.03125 -25.4375 C 7.738281 -24.644531 7.34375 -23.867188 7.84375 -23.109375 C 8.351562 -22.359375 10.4375 -21.0625 14.09375 -19.21875 C 17.75 -17.375 20.328125 -15.878906 21.828125 -14.734375 C 23.335938 -13.585938 24.304688 -12.457031 24.734375 -11.34375 C 25.160156 -10.226562 25.300781 -8.9375 25.15625 -7.46875 C 25.019531 -6 24.644531 -4.710938 24.03125 -3.609375 C 20.914062 1.910156 15.234375 2.648438 6.984375 -1.390625 C 3.078125 -3.296875 1.953125 -5.160156 3.609375 -6.984375 C 4.210938 -7.703125 4.941406 -8.023438 5.796875 -7.953125 C 6.660156 -7.878906 7.960938 -7.410156 9.703125 -6.546875 C 11.441406 -5.691406 13.0625 -5.191406 14.5625 -5.046875 C 16.070312 -4.910156 17.023438 -4.910156 17.421875 -5.046875 C 17.816406 -5.191406 18.226562 -5.515625 18.65625 -6.015625 C 19.226562 -6.847656 19.515625 -7.582031 19.515625 -8.21875 C 19.515625 -8.863281 18.921875 -9.648438 17.734375 -10.578125 C 16.554688 -11.515625 14.363281 -12.691406 11.15625 -14.109375 C 7.945312 -15.523438 5.550781 -16.914062 3.96875 -18.28125 C 2.394531 -19.644531 1.609375 -21.347656 1.609375 -23.390625 C 1.609375 -26.078125 3.023438 -28.40625 5.859375 -30.375 C 6.972656 -31.195312 7.851562 -31.679688 8.5 -31.828125 C 9.144531 -31.972656 10.46875 -32.046875 12.46875 -32.046875 Z M 12.46875 -32.046875 "/></g></g></g><g fill="#000000" fill-opacity="1"><g transform="translate(478.941761, 569.142956)"><g><path d="M 15.375 -17.75 C 13.007812 -18.707031 11.378906 -18.6875 10.484375 -17.6875 C 9.941406 -17.007812 9.992188 -16.578125 10.640625 -16.390625 C 11.285156 -16.210938 12.6875 -16.054688 14.84375 -15.921875 C 16.914062 -15.773438 17.8125 -15.953125 17.53125 -16.453125 C 17.382812 -16.773438 16.664062 -17.207031 15.375 -17.75 Z M 25.640625 -14.671875 C 25.640625 -13.847656 25.109375 -12.988281 24.046875 -12.09375 C 22.992188 -11.195312 21.859375 -10.640625 20.640625 -10.421875 C 19.421875 -10.210938 17.179688 -10.085938 13.921875 -10.046875 C 10.660156 -10.015625 8.78125 -10.101562 8.28125 -10.3125 C 7.78125 -10.53125 7.53125 -10.570312 7.53125 -10.4375 L 8.171875 -8.765625 C 9.035156 -6.679688 10.078125 -5.515625 11.296875 -5.265625 C 12.515625 -5.054688 14.375 -5.488281 16.875 -6.5625 C 19.382812 -7.632812 20.914062 -8.222656 21.46875 -8.328125 C 22.03125 -8.441406 22.675781 -8.265625 23.40625 -7.796875 C 24.144531 -7.328125 24.550781 -6.59375 24.625 -5.59375 C 24.695312 -4.59375 24.410156 -3.800781 23.765625 -3.21875 C 23.117188 -2.644531 21.71875 -1.898438 19.5625 -0.984375 C 17.414062 -0.078125 15.910156 0.472656 15.046875 0.671875 C 14.191406 0.867188 12.921875 0.894531 11.234375 0.75 C 9.546875 0.601562 8.019531 0.0664062 6.65625 -0.859375 C 5.300781 -1.796875 4.15625 -3.191406 3.21875 -5.046875 C 2.289062 -6.910156 1.753906 -8.847656 1.609375 -10.859375 C 1.535156 -12.867188 1.800781 -14.609375 2.40625 -16.078125 C 3.019531 -17.546875 3.972656 -19.101562 5.265625 -20.75 C 6.554688 -22.40625 7.6875 -23.460938 8.65625 -23.921875 C 9.625 -24.390625 11.109375 -24.550781 13.109375 -24.40625 C 15.117188 -24.257812 16.753906 -23.898438 18.015625 -23.328125 C 20.160156 -22.253906 21.96875 -20.894531 23.4375 -19.25 C 24.90625 -17.601562 25.640625 -16.078125 25.640625 -14.671875 Z M 25.640625 -14.671875 "/></g></g></g><g fill="#000000" fill-opacity="1"><g transform="translate(506.200113, 569.142956)"><g><path d="M 15.703125 -3.984375 C 15.703125 -3.585938 15.128906 -3.03125 13.984375 -2.3125 C 12.835938 -1.59375 11.957031 -1.234375 11.34375 -1.234375 C 9.65625 -1.234375 8.023438 -2.09375 6.453125 -3.8125 C 4.878906 -5.53125 3.660156 -7.769531 2.796875 -10.53125 C 1.898438 -13.289062 1.523438 -16.109375 1.671875 -18.984375 C 1.742188 -20.453125 1.867188 -21.414062 2.046875 -21.875 C 2.222656 -22.34375 2.695312 -22.789062 3.46875 -23.21875 C 4.238281 -23.65625 4.945312 -23.691406 5.59375 -23.328125 C 6.238281 -22.972656 6.6875 -22.4375 6.9375 -21.71875 C 7.1875 -21 7.453125 -19.507812 7.734375 -17.25 C 8.023438 -15 8.492188 -12.90625 9.140625 -10.96875 C 9.785156 -9.03125 10.359375 -8.0625 10.859375 -8.0625 C 11.429688 -8.0625 12.289062 -9.691406 13.4375 -12.953125 C 14.582031 -16.210938 15.15625 -18.632812 15.15625 -20.21875 C 15.15625 -22.65625 15.910156 -24.140625 17.421875 -24.671875 C 19.035156 -25.316406 20.234375 -24.925781 21.015625 -23.5 C 21.410156 -22.738281 21.679688 -20.066406 21.828125 -15.484375 C 21.972656 -10.898438 22.082031 -7.78125 22.15625 -6.125 C 22.226562 -4.476562 22.132812 -3.257812 21.875 -2.46875 C 21.625 -1.6875 21.320312 -1.203125 20.96875 -1.015625 C 20.613281 -0.835938 20.078125 -0.785156 19.359375 -0.859375 C 18.640625 -0.929688 18.082031 -1.109375 17.6875 -1.390625 C 17.332031 -1.679688 16.9375 -2.203125 16.5 -2.953125 C 16.113281 -3.710938 15.882812 -4.09375 15.8125 -4.09375 C 15.738281 -4.09375 15.703125 -4.054688 15.703125 -3.984375 Z M 15.703125 -3.984375 "/></g></g></g><g fill="#000000" fill-opacity="1"><g transform="translate(529.963811, 569.142956)"><g/></g></g><g fill="#000000" fill-opacity="1"><g transform="translate(549.964023, 569.142956)"><g><path d="M 4.5625 -38.8125 C 6.039062 -38.8125 6.957031 -37.988281 7.3125 -36.34375 C 7.664062 -34.695312 7.921875 -29.972656 8.078125 -22.171875 C 8.242188 -14.378906 8.488281 -9.816406 8.8125 -8.484375 C 9.132812 -7.160156 9.765625 -6.335938 10.703125 -6.015625 C 11.054688 -5.953125 11.882812 -5.8125 13.1875 -5.59375 C 14.5 -5.375 15.476562 -5.039062 16.125 -4.59375 C 16.769531 -4.144531 17.09375 -3.472656 17.09375 -2.578125 C 17.09375 -0.640625 15.695312 0.328125 12.90625 0.328125 C 10.75 0.328125 8.8125 -0.132812 7.09375 -1.0625 C 5.375 -2 4.082031 -3.328125 3.21875 -5.046875 C 2.757812 -5.835938 2.4375 -7.523438 2.25 -10.109375 C 2.070312 -12.691406 1.910156 -17.191406 1.765625 -23.609375 C 1.628906 -30.023438 1.597656 -33.945312 1.671875 -35.375 C 1.703125 -36.8125 1.929688 -37.742188 2.359375 -38.171875 C 2.796875 -38.597656 3.53125 -38.8125 4.5625 -38.8125 Z M 4.5625 -38.8125 "/></g></g></g><g fill="#000000" fill-opacity="1"><g transform="translate(568.673896, 569.142956)"><g><path d="M 8.390625 -5.046875 C 7.992188 -4.265625 7.253906 -3.875 6.171875 -3.875 C 5.097656 -3.875 4.347656 -4.234375 3.921875 -4.953125 C 3.523438 -5.660156 3.039062 -7.375 2.46875 -10.09375 C 1.894531 -12.820312 1.609375 -14.941406 1.609375 -16.453125 C 1.609375 -17.890625 1.875 -18.925781 2.40625 -19.5625 C 2.945312 -20.207031 3.71875 -20.53125 4.71875 -20.53125 C 5.726562 -20.53125 6.410156 -20.28125 6.765625 -19.78125 C 7.128906 -19.28125 7.457031 -18.3125 7.75 -16.875 C 8 -15.445312 8.316406 -12.832031 8.703125 -9.03125 C 8.890625 -7.164062 8.785156 -5.835938 8.390625 -5.046875 Z M 7.84375 -27.84375 C 7.84375 -27.0625 7.519531 -26.347656 6.875 -25.703125 C 6.238281 -25.054688 5.539062 -24.734375 4.78125 -24.734375 C 3.632812 -24.734375 2.847656 -25.394531 2.421875 -26.71875 C 2.023438 -28.039062 2.21875 -29.164062 3 -30.09375 C 3.789062 -31.03125 4.796875 -31.210938 6.015625 -30.640625 C 7.234375 -30.066406 7.84375 -29.132812 7.84375 -27.84375 Z M 7.84375 -27.84375 "/></g></g></g><g fill="#000000" fill-opacity="1"><g transform="translate(579.104113, 569.142956)"><g><path d="M 26.71875 -21.71875 C 26.789062 -21.394531 25.390625 -19.800781 22.515625 -16.9375 C 19.648438 -14.070312 18.273438 -12.476562 18.390625 -12.15625 C 18.390625 -11.613281 19.210938 -10.394531 20.859375 -8.5 C 22.578125 -6.632812 23.632812 -5.304688 24.03125 -4.515625 C 24.425781 -3.722656 24.441406 -2.988281 24.078125 -2.3125 C 23.722656 -1.632812 23.097656 -1.113281 22.203125 -0.75 C 21.304688 -0.394531 20.445312 -0.46875 19.625 -0.96875 C 18.800781 -1.46875 17.65625 -2.6875 16.1875 -4.625 L 13.921875 -7.578125 C 13.523438 -7.046875 12.828125 -6.203125 11.828125 -5.046875 C 10.828125 -3.898438 10.269531 -3.257812 10.15625 -3.125 C 9.476562 -2.332031 8.742188 -1.898438 7.953125 -1.828125 C 7.171875 -1.753906 6.421875 -2.039062 5.703125 -2.6875 C 4.984375 -3.332031 4.75 -4.15625 5 -5.15625 C 5.25 -6.125 6.070312 -7.539062 7.46875 -9.40625 L 10.046875 -12.84375 C 8.222656 -15.320312 6.304688 -18.066406 4.296875 -21.078125 C 2.296875 -24.085938 1.421875 -25.609375 1.671875 -25.640625 C 1.703125 -26.109375 2.078125 -26.703125 2.796875 -27.421875 C 3.515625 -28.140625 4.300781 -28.460938 5.15625 -28.390625 C 6.019531 -28.242188 6.71875 -27.8125 7.25 -27.09375 C 7.789062 -26.375 8.523438 -25.367188 9.453125 -24.078125 C 10.390625 -22.796875 11.285156 -21.546875 12.140625 -20.328125 C 13.003906 -19.109375 13.742188 -18.117188 14.359375 -17.359375 L 17.796875 -20.703125 C 19.910156 -22.742188 21.394531 -24.015625 22.25 -24.515625 C 23.113281 -25.015625 23.957031 -25.101562 24.78125 -24.78125 C 26.070312 -24.25 26.71875 -23.226562 26.71875 -21.71875 Z M 26.71875 -21.71875 "/></g></g></g><g fill="#000000" fill-opacity="1"><g transform="translate(607.43775, 569.142956)"><g><path d="M 13.4375 -17.46875 C 12.394531 -18.507812 11.335938 -18.632812 10.265625 -17.84375 C 9.191406 -17.0625 8.332031 -15.484375 7.6875 -13.109375 C 7.039062 -10.742188 7.179688 -8.554688 8.109375 -6.546875 C 9.046875 -4.546875 10.285156 -3.742188 11.828125 -4.140625 C 12.796875 -4.390625 13.492188 -4.726562 13.921875 -5.15625 C 14.359375 -5.59375 14.753906 -6.453125 15.109375 -7.734375 C 15.460938 -9.023438 15.460938 -10.78125 15.109375 -13 C 14.753906 -15.226562 14.195312 -16.71875 13.4375 -17.46875 Z M 1.65625 -11.9375 C 1.800781 -14.726562 2.519531 -17.269531 3.8125 -19.5625 C 5.101562 -21.863281 6.769531 -23.425781 8.8125 -24.25 C 10.851562 -25.070312 13.847656 -24.410156 17.796875 -22.265625 C 19.878906 -21.109375 21.207031 -20.132812 21.78125 -19.34375 C 22.351562 -18.5625 22.382812 -17.664062 21.875 -16.65625 C 21.375 -15.65625 21.160156 -13.722656 21.234375 -10.859375 C 21.453125 -4.046875 19.035156 0.09375 13.984375 1.5625 C 10.179688 2.664062 6.914062 1.660156 4.1875 -1.453125 C 3.039062 -2.773438 2.289062 -4.15625 1.9375 -5.59375 C 1.613281 -7.03125 1.519531 -9.144531 1.65625 -11.9375 Z M 1.65625 -11.9375 "/></g></g></g><g fill="#000000" fill-opacity="1"><g transform="translate(631.308974, 569.142956)"><g><path d="M 8.96875 -8.109375 C 9.082031 -7.578125 9.140625 -6.519531 9.140625 -4.9375 C 9.140625 -3.363281 9.050781 -2.253906 8.875 -1.609375 C 8.695312 -0.960938 8.265625 -0.125 7.578125 0.90625 C 5.785156 3.457031 4.117188 4.035156 2.578125 2.640625 C 2.003906 2.128906 1.679688 1.476562 1.609375 0.6875 C 1.535156 -0.09375 1.769531 -0.84375 2.3125 -1.5625 C 2.78125 -2.3125 3.117188 -3.507812 3.328125 -5.15625 C 3.546875 -6.8125 3.757812 -7.957031 3.96875 -8.59375 C 4.1875 -9.238281 4.617188 -9.648438 5.265625 -9.828125 C 5.910156 -10.015625 6.429688 -10.070312 6.828125 -10 C 7.222656 -9.925781 7.65625 -9.75 8.125 -9.46875 C 8.582031 -9.101562 8.863281 -8.648438 8.96875 -8.109375 Z M 8.96875 -8.109375 "/></g></g></g><g fill="#000000" fill-opacity="1"><g transform="translate(642.06178, 569.142956)"><g/></g></g><g fill="#000000" fill-opacity="1"><g transform="translate(662.061981, 569.142956)"><g><path d="M 22.09375 -3.328125 C 21.125 -3.328125 20.390625 -3.789062 19.890625 -4.71875 C 19.390625 -5.65625 18.890625 -7.378906 18.390625 -9.890625 C 17.597656 -14.335938 16.644531 -16.882812 15.53125 -17.53125 C 15.28125 -17.675781 15.03125 -17.65625 14.78125 -17.46875 C 13.882812 -16.757812 12.898438 -13.375 11.828125 -7.3125 C 11.472656 -5.34375 10.9375 -3.847656 10.21875 -2.828125 C 9.5 -1.804688 8.734375 -1.363281 7.921875 -1.5 C 7.117188 -1.644531 6.664062 -1.71875 6.5625 -1.71875 C 6.132812 -1.71875 5.738281 -2.363281 5.375 -3.65625 C 5.019531 -4.945312 4.625 -7.398438 4.1875 -11.015625 C 3.757812 -14.640625 3.171875 -17.296875 2.421875 -18.984375 C 1.160156 -21.878906 1.335938 -23.722656 2.953125 -24.515625 C 4.671875 -25.410156 6.234375 -24.640625 7.640625 -22.203125 L 8.875 -20 L 10.53125 -21.78125 C 11.394531 -22.75 12.4375 -23.445312 13.65625 -23.875 C 14.875 -24.300781 15.984375 -24.351562 16.984375 -24.03125 C 18.640625 -23.53125 20.078125 -22.300781 21.296875 -20.34375 C 22.515625 -18.394531 23.445312 -15.769531 24.09375 -12.46875 C 24.738281 -9.175781 24.929688 -6.832031 24.671875 -5.4375 C 24.390625 -4.03125 23.53125 -3.328125 22.09375 -3.328125 Z M 22.09375 -3.328125 "/></g></g></g><g fill="#000000" fill-opacity="1"><g transform="translate(688.460102, 569.142956)"><g><path d="M 13.4375 -17.46875 C 12.394531 -18.507812 11.335938 -18.632812 10.265625 -17.84375 C 9.191406 -17.0625 8.332031 -15.484375 7.6875 -13.109375 C 7.039062 -10.742188 7.179688 -8.554688 8.109375 -6.546875 C 9.046875 -4.546875 10.285156 -3.742188 11.828125 -4.140625 C 12.796875 -4.390625 13.492188 -4.726562 13.921875 -5.15625 C 14.359375 -5.59375 14.753906 -6.453125 15.109375 -7.734375 C 15.460938 -9.023438 15.460938 -10.78125 15.109375 -13 C 14.753906 -15.226562 14.195312 -16.71875 13.4375 -17.46875 Z M 1.65625 -11.9375 C 1.800781 -14.726562 2.519531 -17.269531 3.8125 -19.5625 C 5.101562 -21.863281 6.769531 -23.425781 8.8125 -24.25 C 10.851562 -25.070312 13.847656 -24.410156 17.796875 -22.265625 C 19.878906 -21.109375 21.207031 -20.132812 21.78125 -19.34375 C 22.351562 -18.5625 22.382812 -17.664062 21.875 -16.65625 C 21.375 -15.65625 21.160156 -13.722656 21.234375 -10.859375 C 21.453125 -4.046875 19.035156 0.09375 13.984375 1.5625 C 10.179688 2.664062 6.914062 1.660156 4.1875 -1.453125 C 3.039062 -2.773438 2.289062 -4.15625 1.9375 -5.59375 C 1.613281 -7.03125 1.519531 -9.144531 1.65625 -11.9375 Z M 1.65625 -11.9375 "/></g></g></g><g fill="#000000" fill-opacity="1"><g transform="translate(712.331315, 569.142956)"><g><path d="M 13.0625 -19.640625 C 12.59375 -20.597656 12.179688 -21.253906 11.828125 -21.609375 C 11.472656 -21.972656 10.960938 -22.15625 10.296875 -22.15625 C 9.628906 -22.15625 9.117188 -21.8125 8.765625 -21.125 C 8.222656 -20.019531 8.164062 -19.144531 8.59375 -18.5 C 9.03125 -17.851562 10.445312 -16.847656 12.84375 -15.484375 C 15.25 -14.117188 17.0625 -12.835938 18.28125 -11.640625 C 19.5 -10.441406 20.320312 -9.125 20.75 -7.6875 C 21.1875 -6.25 21.296875 -5.082031 21.078125 -4.1875 C 20.859375 -3.289062 20.210938 -2.34375 19.140625 -1.34375 C 15.484375 2.28125 11.128906 2.710938 6.078125 -0.046875 C 3.742188 -1.304688 2.328125 -2.546875 1.828125 -3.765625 C 1.328125 -4.984375 1.757812 -6.113281 3.125 -7.15625 L 4.46875 -8.125 L 7.578125 -6.296875 C 9.222656 -5.253906 10.546875 -4.660156 11.546875 -4.515625 C 12.554688 -4.367188 13.390625 -4.519531 14.046875 -4.96875 C 14.710938 -5.414062 15.007812 -5.75 14.9375 -5.96875 C 14.875 -6.1875 14.5 -6.671875 13.8125 -7.421875 C 13.0625 -8.140625 11.503906 -9.210938 9.140625 -10.640625 C 6.773438 -12.078125 5.09375 -13.257812 4.09375 -14.1875 C 3.15625 -15.125 2.578125 -15.832031 2.359375 -16.3125 C 2.148438 -16.800781 2.023438 -17.597656 1.984375 -18.703125 C 1.984375 -20.710938 2.570312 -22.613281 3.75 -24.40625 C 4.9375 -26.195312 6.359375 -27.34375 8.015625 -27.84375 C 8.867188 -28.132812 10.019531 -28.207031 11.46875 -28.0625 C 12.925781 -27.914062 14.046875 -27.664062 14.828125 -27.3125 C 15.617188 -26.957031 16.535156 -25.847656 17.578125 -23.984375 C 18.617188 -22.117188 19.140625 -20.789062 19.140625 -20 C 19.140625 -19.207031 18.765625 -18.488281 18.015625 -17.84375 C 17.191406 -17.195312 16.457031 -16.910156 15.8125 -16.984375 C 15.164062 -17.054688 14.660156 -17.28125 14.296875 -17.65625 C 13.941406 -18.03125 13.53125 -18.691406 13.0625 -19.640625 Z M 13.0625 -19.640625 "/></g></g></g><g fill="#000000" fill-opacity="1"><g transform="translate(735.127244, 569.142956)"><g><path d="M 13.0625 -19.640625 C 12.59375 -20.597656 12.179688 -21.253906 11.828125 -21.609375 C 11.472656 -21.972656 10.960938 -22.15625 10.296875 -22.15625 C 9.628906 -22.15625 9.117188 -21.8125 8.765625 -21.125 C 8.222656 -20.019531 8.164062 -19.144531 8.59375 -18.5 C 9.03125 -17.851562 10.445312 -16.847656 12.84375 -15.484375 C 15.25 -14.117188 17.0625 -12.835938 18.28125 -11.640625 C 19.5 -10.441406 20.320312 -9.125 20.75 -7.6875 C 21.1875 -6.25 21.296875 -5.082031 21.078125 -4.1875 C 20.859375 -3.289062 20.210938 -2.34375 19.140625 -1.34375 C 15.484375 2.28125 11.128906 2.710938 6.078125 -0.046875 C 3.742188 -1.304688 2.328125 -2.546875 1.828125 -3.765625 C 1.328125 -4.984375 1.757812 -6.113281 3.125 -7.15625 L 4.46875 -8.125 L 7.578125 -6.296875 C 9.222656 -5.253906 10.546875 -4.660156 11.546875 -4.515625 C 12.554688 -4.367188 13.390625 -4.519531 14.046875 -4.96875 C 14.710938 -5.414062 15.007812 -5.75 14.9375 -5.96875 C 14.875 -6.1875 14.5 -6.671875 13.8125 -7.421875 C 13.0625 -8.140625 11.503906 -9.210938 9.140625 -10.640625 C 6.773438 -12.078125 5.09375 -13.257812 4.09375 -14.1875 C 3.15625 -15.125 2.578125 -15.832031 2.359375 -16.3125 C 2.148438 -16.800781 2.023438 -17.597656 1.984375 -18.703125 C 1.984375 -20.710938 2.570312 -22.613281 3.75 -24.40625 C 4.9375 -26.195312 6.359375 -27.34375 8.015625 -27.84375 C 8.867188 -28.132812 10.019531 -28.207031 11.46875 -28.0625 C 12.925781 -27.914062 14.046875 -27.664062 14.828125 -27.3125 C 15.617188 -26.957031 16.535156 -25.847656 17.578125 -23.984375 C 18.617188 -22.117188 19.140625 -20.789062 19.140625 -20 C 19.140625 -19.207031 18.765625 -18.488281 18.015625 -17.84375 C 17.191406 -17.195312 16.457031 -16.910156 15.8125 -16.984375 C 15.164062 -17.054688 14.660156 -17.28125 14.296875 -17.65625 C 13.941406 -18.03125 13.53125 -18.691406 13.0625 -19.640625 Z M 13.0625 -19.640625 "/></g></g></g><g fill="#000000" fill-opacity="1"><g transform="translate(757.923174, 569.142956)"><g><path d="M 11.671875 -6.453125 C 12.171875 -6.453125 12.90625 -7.203125 13.875 -8.703125 C 14.84375 -10.210938 15.613281 -11.828125 16.1875 -13.546875 C 16.757812 -15.265625 17.0625 -16.445312 17.09375 -17.09375 C 17.09375 -17.738281 16.804688 -18.3125 16.234375 -18.8125 C 14.617188 -19.601562 13.164062 -19.675781 11.875 -19.03125 C 10.59375 -18.382812 9.554688 -17.269531 8.765625 -15.6875 C 7.972656 -14.113281 7.703125 -12.554688 7.953125 -11.015625 C 8.128906 -10.117188 8.648438 -9.132812 9.515625 -8.0625 C 10.378906 -6.988281 11.097656 -6.453125 11.671875 -6.453125 Z M 25.96875 -11.390625 C 27.039062 -6.234375 27.578125 -3.117188 27.578125 -2.046875 C 27.578125 -0.972656 27.34375 -0.222656 26.875 0.203125 C 26.414062 0.640625 25.664062 0.859375 24.625 0.859375 C 23.582031 0.859375 22.863281 0.570312 22.46875 0 C 22.070312 -0.570312 21.660156 -1.96875 21.234375 -4.1875 C 20.804688 -6.414062 20.503906 -7.53125 20.328125 -7.53125 C 20.210938 -7.53125 19.640625 -6.738281 18.609375 -5.15625 C 16.773438 -2.21875 14.390625 -0.75 11.453125 -0.75 C 8.515625 -0.75 6.0625 -2.253906 4.09375 -5.265625 C 2.613281 -7.554688 1.800781 -9.632812 1.65625 -11.5 C 1.519531 -13.363281 1.914062 -15.265625 2.84375 -17.203125 C 3.78125 -19.140625 4.984375 -20.84375 6.453125 -22.3125 C 7.921875 -23.820312 9.226562 -24.753906 10.375 -25.109375 C 13.425781 -26.148438 16.597656 -25.664062 19.890625 -23.65625 C 21.828125 -22.46875 23.046875 -21.410156 23.546875 -20.484375 C 24.046875 -19.585938 24.851562 -16.554688 25.96875 -11.390625 Z M 25.96875 -11.390625 "/></g></g></g><g fill="#000000" fill-opacity="1"><g transform="translate(787.117043, 569.142956)"><g/></g></g><g fill="#000000" fill-opacity="1"><g transform="translate(807.117265, 569.142956)"><g><path d="M 13.0625 -19.640625 C 12.59375 -20.597656 12.179688 -21.253906 11.828125 -21.609375 C 11.472656 -21.972656 10.960938 -22.15625 10.296875 -22.15625 C 9.628906 -22.15625 9.117188 -21.8125 8.765625 -21.125 C 8.222656 -20.019531 8.164062 -19.144531 8.59375 -18.5 C 9.03125 -17.851562 10.445312 -16.847656 12.84375 -15.484375 C 15.25 -14.117188 17.0625 -12.835938 18.28125 -11.640625 C 19.5 -10.441406 20.320312 -9.125 20.75 -7.6875 C 21.1875 -6.25 21.296875 -5.082031 21.078125 -4.1875 C 20.859375 -3.289062 20.210938 -2.34375 19.140625 -1.34375 C 15.484375 2.28125 11.128906 2.710938 6.078125 -0.046875 C 3.742188 -1.304688 2.328125 -2.546875 1.828125 -3.765625 C 1.328125 -4.984375 1.757812 -6.113281 3.125 -7.15625 L 4.46875 -8.125 L 7.578125 -6.296875 C 9.222656 -5.253906 10.546875 -4.660156 11.546875 -4.515625 C 12.554688 -4.367188 13.390625 -4.519531 14.046875 -4.96875 C 14.710938 -5.414062 15.007812 -5.75 14.9375 -5.96875 C 14.875 -6.1875 14.5 -6.671875 13.8125 -7.421875 C 13.0625 -8.140625 11.503906 -9.210938 9.140625 -10.640625 C 6.773438 -12.078125 5.09375 -13.257812 4.09375 -14.1875 C 3.15625 -15.125 2.578125 -15.832031 2.359375 -16.3125 C 2.148438 -16.800781 2.023438 -17.597656 1.984375 -18.703125 C 1.984375 -20.710938 2.570312 -22.613281 3.75 -24.40625 C 4.9375 -26.195312 6.359375 -27.34375 8.015625 -27.84375 C 8.867188 -28.132812 10.019531 -28.207031 11.46875 -28.0625 C 12.925781 -27.914062 14.046875 -27.664062 14.828125 -27.3125 C 15.617188 -26.957031 16.535156 -25.847656 17.578125 -23.984375 C 18.617188 -22.117188 19.140625 -20.789062 19.140625 -20 C 19.140625 -19.207031 18.765625 -18.488281 18.015625 -17.84375 C 17.191406 -17.195312 16.457031 -16.910156 15.8125 -16.984375 C 15.164062 -17.054688 14.660156 -17.28125 14.296875 -17.65625 C 13.941406 -18.03125 13.53125 -18.691406 13.0625 -19.640625 Z M 13.0625 -19.640625 "/></g></g></g><g fill="#000000" fill-opacity="1"><g transform="translate(829.913194, 569.142956)"><g><path d="M 13.4375 -17.46875 C 12.394531 -18.507812 11.335938 -18.632812 10.265625 -17.84375 C 9.191406 -17.0625 8.332031 -15.484375 7.6875 -13.109375 C 7.039062 -10.742188 7.179688 -8.554688 8.109375 -6.546875 C 9.046875 -4.546875 10.285156 -3.742188 11.828125 -4.140625 C 12.796875 -4.390625 13.492188 -4.726562 13.921875 -5.15625 C 14.359375 -5.59375 14.753906 -6.453125 15.109375 -7.734375 C 15.460938 -9.023438 15.460938 -10.78125 15.109375 -13 C 14.753906 -15.226562 14.195312 -16.71875 13.4375 -17.46875 Z M 1.65625 -11.9375 C 1.800781 -14.726562 2.519531 -17.269531 3.8125 -19.5625 C 5.101562 -21.863281 6.769531 -23.425781 8.8125 -24.25 C 10.851562 -25.070312 13.847656 -24.410156 17.796875 -22.265625 C 19.878906 -21.109375 21.207031 -20.132812 21.78125 -19.34375 C 22.351562 -18.5625 22.382812 -17.664062 21.875 -16.65625 C 21.375 -15.65625 21.160156 -13.722656 21.234375 -10.859375 C 21.453125 -4.046875 19.035156 0.09375 13.984375 1.5625 C 10.179688 2.664062 6.914062 1.660156 4.1875 -1.453125 C 3.039062 -2.773438 2.289062 -4.15625 1.9375 -5.59375 C 1.613281 -7.03125 1.519531 -9.144531 1.65625 -11.9375 Z M 1.65625 -11.9375 "/></g></g></g><g fill="#000000" fill-opacity="1"><g transform="translate(853.784407, 569.142956)"><g><path d="M 4.5625 -38.8125 C 6.039062 -38.8125 6.957031 -37.988281 7.3125 -36.34375 C 7.664062 -34.695312 7.921875 -29.972656 8.078125 -22.171875 C 8.242188 -14.378906 8.488281 -9.816406 8.8125 -8.484375 C 9.132812 -7.160156 9.765625 -6.335938 10.703125 -6.015625 C 11.054688 -5.953125 11.882812 -5.8125 13.1875 -5.59375 C 14.5 -5.375 15.476562 -5.039062 16.125 -4.59375 C 16.769531 -4.144531 17.09375 -3.472656 17.09375 -2.578125 C 17.09375 -0.640625 15.695312 0.328125 12.90625 0.328125 C 10.75 0.328125 8.8125 -0.132812 7.09375 -1.0625 C 5.375 -2 4.082031 -3.328125 3.21875 -5.046875 C 2.757812 -5.835938 2.4375 -7.523438 2.25 -10.109375 C 2.070312 -12.691406 1.910156 -17.191406 1.765625 -23.609375 C 1.628906 -30.023438 1.597656 -33.945312 1.671875 -35.375 C 1.703125 -36.8125 1.929688 -37.742188 2.359375 -38.171875 C 2.796875 -38.597656 3.53125 -38.8125 4.5625 -38.8125 Z M 4.5625 -38.8125 "/></g></g></g><g fill="#000000" fill-opacity="1"><g transform="translate(872.494271, 569.142956)"><g><path d="M 15.703125 -3.984375 C 15.703125 -3.585938 15.128906 -3.03125 13.984375 -2.3125 C 12.835938 -1.59375 11.957031 -1.234375 11.34375 -1.234375 C 9.65625 -1.234375 8.023438 -2.09375 6.453125 -3.8125 C 4.878906 -5.53125 3.660156 -7.769531 2.796875 -10.53125 C 1.898438 -13.289062 1.523438 -16.109375 1.671875 -18.984375 C 1.742188 -20.453125 1.867188 -21.414062 2.046875 -21.875 C 2.222656 -22.34375 2.695312 -22.789062 3.46875 -23.21875 C 4.238281 -23.65625 4.945312 -23.691406 5.59375 -23.328125 C 6.238281 -22.972656 6.6875 -22.4375 6.9375 -21.71875 C 7.1875 -21 7.453125 -19.507812 7.734375 -17.25 C 8.023438 -15 8.492188 -12.90625 9.140625 -10.96875 C 9.785156 -9.03125 10.359375 -8.0625 10.859375 -8.0625 C 11.429688 -8.0625 12.289062 -9.691406 13.4375 -12.953125 C 14.582031 -16.210938 15.15625 -18.632812 15.15625 -20.21875 C 15.15625 -22.65625 15.910156 -24.140625 17.421875 -24.671875 C 19.035156 -25.316406 20.234375 -24.925781 21.015625 -23.5 C 21.410156 -22.738281 21.679688 -20.066406 21.828125 -15.484375 C 21.972656 -10.898438 22.082031 -7.78125 22.15625 -6.125 C 22.226562 -4.476562 22.132812 -3.257812 21.875 -2.46875 C 21.625 -1.6875 21.320312 -1.203125 20.96875 -1.015625 C 20.613281 -0.835938 20.078125 -0.785156 19.359375 -0.859375 C 18.640625 -0.929688 18.082031 -1.109375 17.6875 -1.390625 C 17.332031 -1.679688 16.9375 -2.203125 16.5 -2.953125 C 16.113281 -3.710938 15.882812 -4.09375 15.8125 -4.09375 C 15.738281 -4.09375 15.703125 -4.054688 15.703125 -3.984375 Z M 15.703125 -3.984375 "/></g></g></g><g fill="#000000" fill-opacity="1"><g transform="translate(896.257948, 569.142956)"><g><path d="M 9.1875 -16.234375 C 9.007812 -15.734375 8.921875 -14.640625 8.921875 -12.953125 C 8.921875 -11.273438 9.007812 -10.179688 9.1875 -9.671875 C 9.375 -9.171875 10.039062 -8.363281 11.1875 -7.25 C 12.332031 -6.144531 13.332031 -5.554688 14.1875 -5.484375 C 15.050781 -5.410156 16.164062 -5.910156 17.53125 -6.984375 C 18.894531 -8.066406 19.96875 -8.570312 20.75 -8.5 C 21.539062 -8.5 22.203125 -8.210938 22.734375 -7.640625 C 23.273438 -7.066406 23.546875 -6.332031 23.546875 -5.4375 C 23.546875 -4.144531 22.003906 -2.476562 18.921875 -0.4375 C 18.773438 -0.363281 18.953125 0.132812 19.453125 1.0625 C 19.960938 2 20.21875 2.644531 20.21875 3 C 20.21875 3.363281 20.035156 3.957031 19.671875 4.78125 C 19.097656 6.039062 18.289062 6.9375 17.25 7.46875 C 16.21875 8.007812 14.125 8.53125 10.96875 9.03125 C 7.8125 9.53125 5.460938 9.617188 3.921875 9.296875 C 2.378906 8.941406 1.609375 8.066406 1.609375 6.671875 C 1.609375 4.515625 3.097656 3.4375 6.078125 3.4375 C 8.660156 3.363281 10.6875 3.128906 12.15625 2.734375 L 11.078125 1.671875 C 7.703125 -1.804688 5.691406 -3.972656 5.046875 -4.828125 C 4.410156 -5.691406 3.859375 -6.859375 3.390625 -8.328125 C 2.773438 -11.015625 2.679688 -13.578125 3.109375 -16.015625 C 3.546875 -18.453125 4.515625 -20.601562 6.015625 -22.46875 C 7.523438 -24.332031 9.300781 -25.441406 11.34375 -25.796875 C 13.382812 -26.160156 15.375 -25.929688 17.3125 -25.109375 C 19.25 -24.285156 20.789062 -23.03125 21.9375 -21.34375 C 22.40625 -20.738281 22.671875 -20.21875 22.734375 -19.78125 C 22.804688 -19.351562 22.738281 -18.890625 22.53125 -18.390625 C 22.0625 -17.171875 21.304688 -16.523438 20.265625 -16.453125 C 19.222656 -16.378906 18.09375 -16.914062 16.875 -18.0625 C 15.65625 -19.207031 14.613281 -19.816406 13.75 -19.890625 C 12.894531 -19.960938 11.96875 -19.492188 10.96875 -18.484375 C 9.96875 -17.484375 9.375 -16.734375 9.1875 -16.234375 Z M 9.1875 -16.234375 "/></g></g></g><g fill="#000000" fill-opacity="1"><g transform="translate(921.41952, 569.142956)"><g><path d="M 18.984375 -17.09375 C 17.117188 -17.957031 15.429688 -18.101562 13.921875 -17.53125 C 12.421875 -16.957031 11.382812 -15.773438 10.8125 -13.984375 C 10.414062 -12.835938 10.394531 -11.757812 10.75 -10.75 C 11.113281 -9.75 11.773438 -9 12.734375 -8.5 C 13.703125 -8 14.90625 -8.140625 16.34375 -8.921875 C 17.78125 -9.710938 18.945312 -10.96875 19.84375 -12.6875 C 20.882812 -14.40625 21.3125 -15.40625 21.125 -15.6875 C 20.945312 -15.976562 20.234375 -16.445312 18.984375 -17.09375 Z M 28.0625 -17.265625 C 28.0625 -16.367188 28.3125 -14.519531 28.8125 -11.71875 C 29.320312 -8.925781 29.804688 -6.8125 30.265625 -5.375 C 30.734375 -3.9375 30.96875 -2.96875 30.96875 -2.46875 C 30.96875 -1.96875 30.75 -1.394531 30.3125 -0.75 C 29.882812 -0.101562 29.171875 0.253906 28.171875 0.328125 C 27.171875 0.398438 26.398438 0.078125 25.859375 -0.640625 C 25.390625 -1.078125 24.90625 -2.046875 24.40625 -3.546875 C 23.90625 -5.054688 23.546875 -5.914062 23.328125 -6.125 C 23.117188 -6.34375 22.707031 -6.164062 22.09375 -5.59375 C 20.050781 -3.800781 17.8125 -2.707031 15.375 -2.3125 C 12.9375 -1.914062 10.820312 -2.3125 9.03125 -3.5 C 6.8125 -4.925781 5.414062 -6.984375 4.84375 -9.671875 C 4.269531 -12.359375 4.59375 -14.992188 5.8125 -17.578125 C 7.03125 -20.160156 8.859375 -21.953125 11.296875 -22.953125 C 13.734375 -23.960938 16.3125 -24.144531 19.03125 -23.5 C 21.757812 -22.851562 24.085938 -21.507812 26.015625 -19.46875 C 27.378906 -18.175781 28.0625 -17.441406 28.0625 -17.265625 Z M 14.9375 -25.90625 C 12.71875 -27.195312 11.5 -27.84375 11.28125 -27.84375 C 11.070312 -27.84375 9.890625 -27.234375 7.734375 -26.015625 C 5.585938 -24.796875 4.335938 -24.316406 3.984375 -24.578125 C 3.265625 -24.785156 2.65625 -25.300781 2.15625 -26.125 C 1.644531 -26.988281 1.476562 -27.707031 1.65625 -28.28125 C 1.84375 -28.851562 2.832031 -29.820312 4.625 -31.1875 C 6.414062 -32.550781 7.796875 -33.410156 8.765625 -33.765625 C 10.910156 -34.585938 13.347656 -34.101562 16.078125 -32.3125 L 18.921875 -30.75 C 19.285156 -30.601562 19.519531 -30.53125 19.625 -30.53125 C 19.726562 -30.53125 19.921875 -30.53125 20.203125 -30.53125 C 20.492188 -30.53125 20.75 -30.625 20.96875 -30.8125 C 21.1875 -30.945312 21.4375 -31.101562 21.71875 -31.28125 C 22.007812 -31.46875 22.332031 -31.722656 22.6875 -32.046875 C 24.582031 -33.691406 26.085938 -33.941406 27.203125 -32.796875 C 28.640625 -31.359375 28.390625 -29.632812 26.453125 -27.625 C 24.515625 -25.625 22.664062 -24.515625 20.90625 -24.296875 C 19.15625 -24.085938 17.164062 -24.625 14.9375 -25.90625 Z M 14.9375 -25.90625 "/></g></g></g><g fill="#000000" fill-opacity="1"><g transform="translate(954.000507, 569.142956)"><g><path d="M 13.4375 -17.46875 C 12.394531 -18.507812 11.335938 -18.632812 10.265625 -17.84375 C 9.191406 -17.0625 8.332031 -15.484375 7.6875 -13.109375 C 7.039062 -10.742188 7.179688 -8.554688 8.109375 -6.546875 C 9.046875 -4.546875 10.285156 -3.742188 11.828125 -4.140625 C 12.796875 -4.390625 13.492188 -4.726562 13.921875 -5.15625 C 14.359375 -5.59375 14.753906 -6.453125 15.109375 -7.734375 C 15.460938 -9.023438 15.460938 -10.78125 15.109375 -13 C 14.753906 -15.226562 14.195312 -16.71875 13.4375 -17.46875 Z M 1.65625 -11.9375 C 1.800781 -14.726562 2.519531 -17.269531 3.8125 -19.5625 C 5.101562 -21.863281 6.769531 -23.425781 8.8125 -24.25 C 10.851562 -25.070312 13.847656 -24.410156 17.796875 -22.265625 C 19.878906 -21.109375 21.207031 -20.132812 21.78125 -19.34375 C 22.351562 -18.5625 22.382812 -17.664062 21.875 -16.65625 C 21.375 -15.65625 21.160156 -13.722656 21.234375 -10.859375 C 21.453125 -4.046875 19.035156 0.09375 13.984375 1.5625 C 10.179688 2.664062 6.914062 1.660156 4.1875 -1.453125 C 3.039062 -2.773438 2.289062 -4.15625 1.9375 -5.59375 C 1.613281 -7.03125 1.519531 -9.144531 1.65625 -11.9375 Z M 1.65625 -11.9375 "/></g></g></g><g fill="#000000" fill-opacity="1"><g transform="translate(977.871721, 569.142956)"><g><path d="M 3.0625 -0.046875 C 2.457031 -0.554688 2.15625 -1.1875 2.15625 -1.9375 C 2.15625 -2.6875 2.441406 -3.367188 3.015625 -3.984375 C 3.867188 -4.910156 4.90625 -5.160156 6.125 -4.734375 C 7.34375 -4.304688 7.953125 -3.425781 7.953125 -2.09375 C 7.953125 -0.769531 7.378906 0.125 6.234375 0.59375 C 5.085938 1.0625 4.03125 0.847656 3.0625 -0.046875 Z M 2.25 -17.953125 C 1.820312 -20.609375 1.609375 -23.082031 1.609375 -25.375 C 1.609375 -27.664062 1.660156 -29.132812 1.765625 -29.78125 C 1.878906 -30.425781 2.171875 -31 2.640625 -31.5 C 3.859375 -32.71875 5.164062 -32.828125 6.5625 -31.828125 C 6.988281 -31.546875 7.273438 -30.9375 7.421875 -30 C 7.566406 -29.070312 7.78125 -26.492188 8.0625 -22.265625 C 8.28125 -18.035156 8.390625 -15.523438 8.390625 -14.734375 C 8.390625 -13.941406 8.207031 -13.332031 7.84375 -12.90625 C 7.488281 -12.476562 6.804688 -12.265625 5.796875 -12.265625 C 4.796875 -12.265625 4.082031 -12.550781 3.65625 -13.125 C 3.15625 -13.695312 2.6875 -15.304688 2.25 -17.953125 Z M 2.25 -17.953125 "/></g></g></g></svg>