<svg xmlns="http://www.w3.org/2000/svg" xmlns:xlink="http://www.w3.org/1999/xlink" width="1920" zoomAndPan="magnify" viewBox="0 0 1440 809.999993" height="1080" preserveAspectRatio="xMidYMid meet" version="1.0"><defs><g/></defs><path fill="#ffffff" d="M 654.636719 285.484375 C 650.300781 275.5 643.859375 256.066406 650.1875 235.316406 C 660.570312 201.269531 701.308594 176.859375 750.339844 180.019531 C 756.847656 221.554688 740.804688 260.464844 710.574219 277.828125 C 690.210938 289.523438 669.113281 288.160156 659.125 286.765625 C 669.355469 279.011719 680.835938 269.050781 692.316406 256.4375 C 710.03125 236.972656 721.859375 217.660156 729.683594 202.246094 C 718.441406 217.929688 704.925781 234.875 688.785156 252.1875 C 677.136719 264.679688 665.628906 275.738281 654.636719 285.484375 Z M 654.636719 285.484375 " fill-opacity="1" fill-rule="nonzero"/><path fill="#ffffff" d="M 641.566406 286.566406 C 633.917969 288.878906 619.191406 291.925781 604.59375 285.539062 C 580.644531 275.066406 566.308594 243.265625 572.792969 207.769531 C 603.644531 206.5625 630.660156 221.582031 640.75 245.113281 C 647.542969 260.960938 644.753906 276.234375 642.882812 283.402344 C 638.101562 275.28125 631.8125 266.054688 623.589844 256.609375 C 610.902344 242.027344 597.820312 231.753906 587.246094 224.730469 C 597.726562 234.269531 608.9375 245.570312 620.1875 258.820312 C 628.308594 268.382812 635.394531 277.71875 641.566406 286.566406 Z M 641.566406 286.566406 " fill-opacity="1" fill-rule="nonzero"/><g fill="#ffffff" fill-opacity="1"><g transform="translate(1278.879307, 528.517973)"><g><path d="M 72.859375 -60.71875 L 51.859375 -61.046875 C 48.359375 -61.046875 45.398438 -62.300781 42.984375 -64.8125 C 40.578125 -67.332031 39.375 -70.34375 39.375 -73.84375 L 39.375 -86.96875 C 39.375 -88.5 38.609375 -89.265625 37.078125 -89.265625 L 19.359375 -89.265625 C 15.640625 -89.265625 12.578125 -90.519531 10.171875 -93.03125 C 7.765625 -95.550781 6.5625 -98.671875 6.5625 -102.390625 L 6.890625 -123.40625 C 7.109375 -126.90625 8.421875 -129.859375 10.828125 -132.265625 C 13.234375 -134.671875 16.1875 -135.875 19.6875 -135.875 L 36.421875 -135.875 C 37.953125 -135.875 38.71875 -136.640625 38.71875 -138.171875 L 38.71875 -154.578125 C 38.71875 -158.078125 39.921875 -161.082031 42.328125 -163.59375 C 44.742188 -166.113281 47.703125 -167.375 51.203125 -167.375 L 72.859375 -167.703125 C 76.578125 -167.703125 79.691406 -166.5 82.203125 -164.09375 C 84.722656 -161.6875 85.984375 -158.625 85.984375 -154.90625 L 85.984375 -138.828125 C 85.984375 -138.171875 86.203125 -137.625 86.640625 -137.1875 C 87.078125 -136.75 87.625 -136.53125 88.28125 -136.53125 L 105.015625 -136.53125 C 108.734375 -136.53125 111.847656 -135.269531 114.359375 -132.75 C 116.878906 -130.238281 118.03125 -127.125 117.8125 -123.40625 L 117.484375 -101.734375 C 117.484375 -98.234375 116.222656 -95.28125 113.703125 -92.875 C 111.191406 -90.46875 108.1875 -89.265625 104.6875 -89.265625 L 88.28125 -89.265625 C 86.75 -89.265625 85.984375 -88.5 85.984375 -86.96875 L 85.984375 -73.515625 C 85.984375 -69.796875 84.722656 -66.625 82.203125 -64 C 79.691406 -61.375 76.578125 -60.28125 72.859375 -60.71875 Z M 72.859375 -60.71875 "/></g></g></g><g fill="#ffffff" fill-opacity="1"><g transform="translate(36.72864, 528.517973)"><g><path d="M 174.59375 1.640625 C 168.25 1.421875 160.644531 1.3125 151.78125 1.3125 C 142.925781 1.3125 132.367188 1.3125 120.109375 1.3125 C 116.609375 1.3125 113.765625 0.21875 111.578125 -1.96875 C 109.390625 -4.15625 107.3125 -7 105.34375 -10.5 L 85.328125 -55.140625 L 79.09375 -55.140625 L 80.40625 -13.453125 C 80.84375 -9.734375 79.75 -6.613281 77.125 -4.09375 C 74.5 -1.582031 71.765625 -0.328125 68.921875 -0.328125 L 11.8125 0 C 8.75 0 6.125 -1.253906 3.9375 -3.765625 C 1.75 -6.285156 0.65625 -9.296875 0.65625 -12.796875 L 0 -217.921875 C 0 -220.984375 1.144531 -223.878906 3.4375 -226.609375 C 5.738281 -229.347656 8.3125 -230.71875 11.15625 -230.71875 L 57.765625 -230.71875 C 75.046875 -230.9375 90.90625 -230.769531 105.34375 -230.21875 C 119.789062 -229.675781 132.535156 -227.816406 143.578125 -224.640625 C 154.628906 -221.472656 163.816406 -216.054688 171.140625 -208.390625 C 178.472656 -200.734375 183.671875 -189.796875 186.734375 -175.578125 C 187.828125 -170.109375 188.753906 -163.488281 189.515625 -155.71875 C 190.285156 -147.957031 190.453125 -139.863281 190.015625 -131.4375 C 189.578125 -123.007812 188.375 -114.96875 186.40625 -107.3125 C 184.4375 -99.65625 181.375 -93.3125 177.21875 -88.28125 C 171.75 -81.5 165.1875 -75.921875 157.53125 -71.546875 C 161.03125 -64.546875 164.96875 -56.445312 169.34375 -47.25 C 173.71875 -38.0625 178.96875 -27.34375 185.09375 -15.09375 C 187.71875 -9.84375 188.207031 -5.6875 186.5625 -2.625 C 184.925781 0.4375 180.9375 1.859375 174.59375 1.640625 Z M 76.140625 -155.5625 L 77.125 -121.421875 L 93.53125 -121.421875 C 101.1875 -121.421875 107.09375 -123.28125 111.25 -127 C 115.40625 -130.726562 117.59375 -135.050781 117.8125 -139.96875 C 118.03125 -144.894531 115.84375 -149.21875 111.25 -152.9375 C 109.0625 -154.6875 104.738281 -155.503906 98.28125 -155.390625 C 91.832031 -155.285156 84.453125 -155.34375 76.140625 -155.5625 Z M 76.140625 -155.5625 "/></g></g></g><g fill="#ffffff" fill-opacity="1"><g transform="translate(240.203434, 528.517973)"><g><path d="M 11.8125 0 C 8.96875 0 6.34375 -1.203125 3.9375 -3.609375 C 1.75 -5.796875 0.65625 -8.859375 0.65625 -12.796875 L 0 -220.546875 C 0 -223.609375 1.203125 -226.5625 3.609375 -229.40625 C 6.015625 -232.03125 8.53125 -233.34375 11.15625 -233.34375 L 138.171875 -233.015625 C 141.890625 -233.015625 144.953125 -231.921875 147.359375 -229.734375 C 149.765625 -227.328125 150.96875 -224.59375 150.96875 -221.53125 L 150.96875 -172.625 C 150.96875 -170 149.65625 -167.484375 147.03125 -165.078125 C 144.625 -163.109375 141.671875 -161.90625 138.171875 -161.46875 L 76.140625 -158.515625 L 76.796875 -142.109375 L 112.234375 -141.78125 C 115.078125 -141.78125 117.59375 -141.015625 119.78125 -139.484375 C 121.96875 -137.953125 122.953125 -135.875 122.734375 -133.25 L 121.09375 -98.125 C 121.09375 -95.9375 120 -94.078125 117.8125 -92.546875 C 115.84375 -91.234375 113.4375 -90.359375 110.59375 -89.921875 L 78.109375 -88.28125 L 78.765625 -75.15625 L 138.171875 -72.53125 C 141.671875 -72.09375 144.625 -70.890625 147.03125 -68.921875 C 149.65625 -66.734375 150.96875 -64.21875 150.96875 -61.375 L 150.96875 -12.46875 C 150.96875 -9.40625 149.765625 -6.671875 147.359375 -4.265625 C 144.953125 -2.078125 141.890625 -0.984375 138.171875 -0.984375 L 50.546875 0 C 50.109375 0 49.5625 0 48.90625 0 C 48.25 0 47.703125 -0.109375 47.265625 -0.328125 Z M 11.8125 0 "/></g></g></g><g fill="#ffffff" fill-opacity="1"><g transform="translate(404.295992, 528.517973)"><g><path d="M 134.234375 1.96875 C 120.878906 5.46875 107.203125 6.5625 93.203125 5.25 C 79.203125 3.9375 66.070312 0.164062 53.8125 -6.0625 C 41.5625 -12.300781 31.390625 -20.78125 23.296875 -31.5 C 16.296875 -41.132812 10.878906 -52.238281 7.046875 -64.8125 C 3.222656 -77.394531 0.984375 -90.6875 0.328125 -104.6875 C -0.328125 -118.695312 0.328125 -132.484375 2.296875 -146.046875 C 6.015625 -168.796875 13.78125 -188.046875 25.59375 -203.796875 C 37.414062 -219.554688 52.1875 -230.5 69.90625 -236.625 C 87.625 -242.75 107.207031 -242.75 128.65625 -236.625 C 142.875 -232.90625 153.972656 -227.4375 161.953125 -220.21875 C 169.941406 -213 175.6875 -204.898438 179.1875 -195.921875 C 182.6875 -186.953125 184.765625 -177.875 185.421875 -168.6875 C 186.078125 -159.5 186.1875 -151.078125 185.75 -143.421875 C 185.53125 -136.859375 181.59375 -133.03125 173.9375 -131.9375 L 127.34375 -130.625 C 123.832031 -130.1875 120.765625 -131.113281 118.140625 -133.40625 C 115.515625 -135.707031 114.09375 -138.609375 113.875 -142.109375 C 113.875 -143.421875 113.707031 -145.769531 113.375 -149.15625 C 113.050781 -152.550781 112.34375 -156 111.25 -159.5 C 110.15625 -163 108.40625 -165.40625 106 -166.71875 C 99 -169.78125 93.691406 -169.175781 90.078125 -164.90625 C 86.472656 -160.644531 84.015625 -153.921875 82.703125 -144.734375 C 81.390625 -135.546875 80.734375 -125.039062 80.734375 -113.21875 L 80.734375 -111.578125 C 80.953125 -94.296875 83.578125 -81.609375 88.609375 -73.515625 C 93.640625 -65.421875 101.296875 -63.5625 111.578125 -67.9375 C 113.984375 -69.25 115.675781 -71.597656 116.65625 -74.984375 C 117.644531 -78.378906 118.300781 -81.828125 118.625 -85.328125 C 118.957031 -88.828125 119.125 -91.34375 119.125 -92.875 C 119.34375 -96.15625 120.765625 -98.941406 123.390625 -101.234375 C 126.023438 -103.535156 129.09375 -104.46875 132.59375 -104.03125 L 179.1875 -102.71875 C 187.0625 -101.625 191.109375 -97.6875 191.328125 -90.90625 C 191.765625 -83.46875 191.597656 -75.207031 190.828125 -66.125 C 190.066406 -57.050781 187.9375 -48.023438 184.4375 -39.046875 C 180.9375 -30.078125 175.25 -21.984375 167.375 -14.765625 C 159.5 -7.546875 148.453125 -1.96875 134.234375 1.96875 Z M 134.234375 1.96875 "/></g></g></g><g fill="#ffffff" fill-opacity="1"><g transform="translate(609.083517, 528.517973)"><g><path d="M 72.203125 0 L 12.46875 0 C 9.1875 0 6.285156 -1.3125 3.765625 -3.9375 C 1.253906 -6.5625 0 -9.515625 0 -12.796875 L 0.65625 -217.265625 C 0.65625 -220.984375 1.859375 -224.046875 4.265625 -226.453125 C 6.671875 -228.859375 9.625 -230.0625 13.125 -230.0625 L 76.140625 -229.734375 C 79.421875 -229.734375 82.425781 -228.472656 85.15625 -225.953125 C 87.894531 -223.441406 89.15625 -220.328125 88.9375 -216.609375 L 85 -12.796875 C 85 -9.296875 83.738281 -6.285156 81.21875 -3.765625 C 78.707031 -1.253906 75.703125 0 72.203125 0 Z M 72.203125 0 "/></g></g></g><g fill="#ffffff" fill-opacity="1"><g transform="translate(711.149107, 528.517973)"><g><path d="M 134.234375 1.96875 C 120.878906 5.46875 107.203125 6.5625 93.203125 5.25 C 79.203125 3.9375 66.070312 0.164062 53.8125 -6.0625 C 41.5625 -12.300781 31.390625 -20.78125 23.296875 -31.5 C 16.296875 -41.132812 10.878906 -52.238281 7.046875 -64.8125 C 3.222656 -77.394531 0.984375 -90.6875 0.328125 -104.6875 C -0.328125 -118.695312 0.328125 -132.484375 2.296875 -146.046875 C 6.015625 -168.796875 13.78125 -188.046875 25.59375 -203.796875 C 37.414062 -219.554688 52.1875 -230.5 69.90625 -236.625 C 87.625 -242.75 107.207031 -242.75 128.65625 -236.625 C 142.875 -232.90625 153.972656 -227.4375 161.953125 -220.21875 C 169.941406 -213 175.6875 -204.898438 179.1875 -195.921875 C 182.6875 -186.953125 184.765625 -177.875 185.421875 -168.6875 C 186.078125 -159.5 186.1875 -151.078125 185.75 -143.421875 C 185.53125 -136.859375 181.59375 -133.03125 173.9375 -131.9375 L 127.34375 -130.625 C 123.832031 -130.1875 120.765625 -131.113281 118.140625 -133.40625 C 115.515625 -135.707031 114.09375 -138.609375 113.875 -142.109375 C 113.875 -143.421875 113.707031 -145.769531 113.375 -149.15625 C 113.050781 -152.550781 112.34375 -156 111.25 -159.5 C 110.15625 -163 108.40625 -165.40625 106 -166.71875 C 99 -169.78125 93.691406 -169.175781 90.078125 -164.90625 C 86.472656 -160.644531 84.015625 -153.921875 82.703125 -144.734375 C 81.390625 -135.546875 80.734375 -125.039062 80.734375 -113.21875 L 80.734375 -111.578125 C 80.953125 -94.296875 83.578125 -81.609375 88.609375 -73.515625 C 93.640625 -65.421875 101.296875 -63.5625 111.578125 -67.9375 C 113.984375 -69.25 115.675781 -71.597656 116.65625 -74.984375 C 117.644531 -78.378906 118.300781 -81.828125 118.625 -85.328125 C 118.957031 -88.828125 119.125 -91.34375 119.125 -92.875 C 119.34375 -96.15625 120.765625 -98.941406 123.390625 -101.234375 C 126.023438 -103.535156 129.09375 -104.46875 132.59375 -104.03125 L 179.1875 -102.71875 C 187.0625 -101.625 191.109375 -97.6875 191.328125 -90.90625 C 191.765625 -83.46875 191.597656 -75.207031 190.828125 -66.125 C 190.066406 -57.050781 187.9375 -48.023438 184.4375 -39.046875 C 180.9375 -30.078125 175.25 -21.984375 167.375 -14.765625 C 159.5 -7.546875 148.453125 -1.96875 134.234375 1.96875 Z M 134.234375 1.96875 "/></g></g></g><g fill="#ffffff" fill-opacity="1"><g transform="translate(915.936672, 528.517973)"><g><path d="M 11.15625 0 C 8.3125 0 5.6875 -1.203125 3.28125 -3.609375 C 1.09375 -5.796875 0 -8.859375 0 -12.796875 L 0.65625 -219.5625 C 0.65625 -222.625 1.859375 -225.578125 4.265625 -228.421875 C 6.671875 -231.046875 9.1875 -232.359375 11.8125 -232.359375 L 66.953125 -232.03125 C 70.015625 -232.03125 72.75 -230.828125 75.15625 -228.421875 C 77.34375 -226.015625 78.4375 -222.953125 78.4375 -219.234375 L 81.71875 -74.828125 L 118.140625 -72.859375 C 121.648438 -72.421875 124.609375 -71.21875 127.015625 -69.25 C 129.640625 -67.0625 130.953125 -64.546875 130.953125 -61.703125 L 130.625 -12.46875 C 130.625 -9.40625 129.421875 -6.671875 127.015625 -4.265625 C 124.609375 -2.078125 121.539062 -0.984375 117.8125 -0.984375 L 49.890625 0 C 49.453125 0 48.90625 0 48.25 0 C 47.59375 0 47.046875 -0.109375 46.609375 -0.328125 Z M 11.15625 0 "/></g></g></g><g fill="#ffffff" fill-opacity="1"><g transform="translate(1060.00992, 528.517973)"><g><path d="M 11.484375 0.984375 C 7.328125 0.984375 4.15625 -0.765625 1.96875 -4.265625 C 0.4375 -6.890625 -0.164062 -8.96875 0.15625 -10.5 C 0.488281 -12.03125 0.984375 -14.765625 1.640625 -18.703125 L 50.21875 -220.875 C 51.09375 -224.15625 52.457031 -227.109375 54.3125 -229.734375 C 56.175781 -232.359375 58.640625 -233.671875 61.703125 -233.671875 L 144.078125 -233.671875 C 147.140625 -233.671875 149.597656 -232.359375 151.453125 -229.734375 C 153.316406 -227.109375 154.6875 -224.15625 155.5625 -220.875 L 204.125 -18.703125 C 204.78125 -14.765625 205.328125 -12.03125 205.765625 -10.5 C 206.210938 -8.96875 205.554688 -6.890625 203.796875 -4.265625 C 201.609375 -0.765625 198.4375 0.984375 194.28125 0.984375 C 178.09375 0.984375 165.515625 1.035156 156.546875 1.140625 C 147.578125 1.253906 141.125 0.925781 137.1875 0.15625 C 133.25 -0.601562 130.625 -2.347656 129.3125 -5.078125 C 128 -7.816406 126.796875 -12.140625 125.703125 -18.046875 L 123.734375 -28.21875 L 82.046875 -28.21875 L 80.078125 -18.046875 C 78.984375 -12.140625 77.78125 -7.816406 76.46875 -5.078125 C 75.15625 -2.347656 72.53125 -0.601562 68.59375 0.15625 C 64.65625 0.925781 58.195312 1.253906 49.21875 1.140625 C 40.25 1.035156 27.671875 0.984375 11.484375 0.984375 Z M 93.203125 -91.5625 L 112.5625 -91.5625 L 103.046875 -146.046875 Z M 93.203125 -91.5625 "/></g></g></g></svg>